<svg width="64" height="58" viewBox="0 0 64 58" fill="none" xmlns="http://www.w3.org/2000/svg">
<g filter="url(#filter0_bi_206_748)">
<path d="M7.11111 46.4286C7.11111 44.4561 8.70299 42.8571 10.6667 42.8571H53.3333C55.297 42.8571 56.8889 44.4561 56.8889 46.4286V50C56.8889 51.9724 55.297 53.5714 53.3333 53.5714H10.6667C8.70299 53.5714 7.11111 51.9724 7.11111 50V46.4286Z" fill="url(#paint0_linear_206_748)"/>
<path d="M7.11111 25C7.11111 23.0276 8.70299 21.4286 10.6667 21.4286H53.3333C55.297 21.4286 56.8889 23.0276 56.8889 25V28.5714C56.8889 30.5439 55.297 32.1429 53.3333 32.1429H10.6667C8.70299 32.1429 7.11111 30.5439 7.11111 28.5714V25Z" fill="url(#paint1_linear_206_748)"/>
<path d="M7.11111 3.57143C7.11111 1.59898 8.70299 0 10.6667 0H53.3333C55.297 0 56.8889 1.59898 56.8889 3.57143V7.14286C56.8889 9.1153 55.297 10.7143 53.3333 10.7143H10.6667C8.70299 10.7143 7.11111 9.1153 7.11111 7.14286V3.57143Z" fill="url(#paint2_linear_206_748)"/>
<path d="M0 7.14286C0 5.17041 1.59188 3.57143 3.55556 3.57143H60.4444C62.4081 3.57143 64 5.17041 64 7.14286V10.7143C64 12.6867 62.4081 14.2857 60.4444 14.2857H3.55556C1.59188 14.2857 0 12.6867 0 10.7143V7.14286Z" fill="#1D1D1D" fill-opacity="0.05"/>
<path d="M0 7.14286C0 5.17041 1.59188 3.57143 3.55556 3.57143H60.4444C62.4081 3.57143 64 5.17041 64 7.14286V10.7143C64 12.6867 62.4081 14.2857 60.4444 14.2857H3.55556C1.59188 14.2857 0 12.6867 0 10.7143V7.14286Z" fill="url(#paint3_linear_206_748)" fill-opacity="0.2"/>
<path d="M0 28.5714C0 26.599 1.59188 25 3.55556 25H60.4444C62.4081 25 64 26.599 64 28.5714V32.1429C64 34.1153 62.4081 35.7143 60.4444 35.7143H3.55556C1.59188 35.7143 0 34.1153 0 32.1429V28.5714Z" fill="#1D1D1D" fill-opacity="0.05"/>
<path d="M0 28.5714C0 26.599 1.59188 25 3.55556 25H60.4444C62.4081 25 64 26.599 64 28.5714V32.1429C64 34.1153 62.4081 35.7143 60.4444 35.7143H3.55556C1.59188 35.7143 0 34.1153 0 32.1429V28.5714Z" fill="url(#paint4_linear_206_748)" fill-opacity="0.2"/>
<path d="M0 50C0 48.0276 1.59188 46.4286 3.55556 46.4286H60.4444C62.4081 46.4286 64 48.0276 64 50V53.5714C64 55.5439 62.4081 57.1429 60.4444 57.1429H3.55556C1.59188 57.1429 0 55.5439 0 53.5714V50Z" fill="#1D1D1D" fill-opacity="0.05"/>
<path d="M0 50C0 48.0276 1.59188 46.4286 3.55556 46.4286H60.4444C62.4081 46.4286 64 48.0276 64 50V53.5714C64 55.5439 62.4081 57.1429 60.4444 57.1429H3.55556C1.59188 57.1429 0 55.5439 0 53.5714V50Z" fill="url(#paint5_linear_206_748)" fill-opacity="0.2"/>
<path d="M10.6667 42.9571H53.3333C55.2081 42.9571 56.7348 44.4572 56.7875 46.3286H7.21252C7.2652 44.4572 8.79191 42.9571 10.6667 42.9571ZM7.21111 46.5286H56.7889V50C56.7889 51.9176 55.2414 53.4714 53.3333 53.4714H10.6667C8.75864 53.4714 7.21111 51.9176 7.21111 50V46.5286ZM7.01111 46.5286V50C7.01111 52.0273 8.64734 53.6714 10.6667 53.6714H53.3333C55.3527 53.6714 56.9889 52.0273 56.9889 50V46.5286H60.4444C62.3525 46.5286 63.9 48.0824 63.9 50V53.5714C63.9 55.4891 62.3525 57.0429 60.4444 57.0429H3.55556C1.64753 57.0429 0.1 55.4891 0.1 53.5714V50C0.1 48.0824 1.64752 46.5286 3.55556 46.5286H7.01111ZM10.6667 21.5286H53.3333C55.2081 21.5286 56.7348 23.0286 56.7875 24.9H7.21252C7.2652 23.0286 8.79191 21.5286 10.6667 21.5286ZM7.21111 25.1H56.7889V28.5714C56.7889 30.4891 55.2414 32.0429 53.3333 32.0429H10.6667C8.75864 32.0429 7.21111 30.4891 7.21111 28.5714V25.1ZM56.9889 28.5714V25.1H60.4444C62.3525 25.1 63.9 26.6538 63.9 28.5714V32.1429C63.9 34.0605 62.3525 35.6143 60.4444 35.6143H3.55556C1.64753 35.6143 0.1 34.0605 0.1 32.1429V28.5714C0.1 26.6538 1.64752 25.1 3.55556 25.1H7.01111V28.5714C7.01111 30.5987 8.64734 32.2429 10.6667 32.2429H53.3333C55.3527 32.2429 56.9889 30.5987 56.9889 28.5714ZM10.6667 0.1H53.3333C55.2081 0.1 56.7348 1.60006 56.7875 3.47143H7.21252C7.2652 1.60006 8.79191 0.1 10.6667 0.1ZM7.21111 3.67143H56.7889V7.14286C56.7889 9.06049 55.2414 10.6143 53.3333 10.6143H10.6667C8.75864 10.6143 7.21111 9.06049 7.21111 7.14286V3.67143ZM56.9889 7.14286V3.67143H60.4444C62.3525 3.67143 63.9 5.22522 63.9 7.14286V10.7143C63.9 12.6319 62.3525 14.1857 60.4444 14.1857H3.55556C1.64753 14.1857 0.1 12.6319 0.1 10.7143V7.14286C0.1 5.22522 1.64752 3.67143 3.55556 3.67143H7.01111V7.14286C7.01111 9.17011 8.64734 10.8143 10.6667 10.8143H53.3333C55.3527 10.8143 56.9889 9.17011 56.9889 7.14286Z" stroke="url(#paint6_linear_206_748)" stroke-opacity="0.1" stroke-width="0.2"/>
</g>
<defs>
<filter id="filter0_bi_206_748" x="-3" y="-3" width="70" height="63.1428" filterUnits="userSpaceOnUse" color-interpolation-filters="sRGB">
<feFlood flood-opacity="0" result="BackgroundImageFix"/>
<feGaussianBlur in="BackgroundImageFix" stdDeviation="1.5"/>
<feComposite in2="SourceAlpha" operator="in" result="effect1_backgroundBlur_206_748"/>
<feBlend mode="normal" in="SourceGraphic" in2="effect1_backgroundBlur_206_748" result="shape"/>
<feColorMatrix in="SourceAlpha" type="matrix" values="0 0 0 0 0 0 0 0 0 0 0 0 0 0 0 0 0 0 127 0" result="hardAlpha"/>
<feOffset dy="0.5"/>
<feGaussianBlur stdDeviation="1"/>
<feComposite in2="hardAlpha" operator="arithmetic" k2="-1" k3="1"/>
<feColorMatrix type="matrix" values="0 0 0 0 1 0 0 0 0 1 0 0 0 0 1 0 0 0 0.15 0"/>
<feBlend mode="normal" in2="shape" result="effect2_innerShadow_206_748"/>
</filter>
<linearGradient id="paint0_linear_206_748" x1="2.66667" y1="11.4286" x2="72.0977" y2="22.229" gradientUnits="userSpaceOnUse">
<stop stop-color="#FE82DB"/>
<stop offset="1" stop-color="#68E4FF"/>
</linearGradient>
<linearGradient id="paint1_linear_206_748" x1="2.66667" y1="11.4286" x2="72.0977" y2="22.229" gradientUnits="userSpaceOnUse">
<stop stop-color="#FE82DB"/>
<stop offset="1" stop-color="#68E4FF"/>
</linearGradient>
<linearGradient id="paint2_linear_206_748" x1="2.66667" y1="11.4286" x2="72.0977" y2="22.229" gradientUnits="userSpaceOnUse">
<stop stop-color="#FE82DB"/>
<stop offset="1" stop-color="#68E4FF"/>
</linearGradient>
<linearGradient id="paint3_linear_206_748" x1="2.66667" y1="11.4286" x2="72.0977" y2="22.229" gradientUnits="userSpaceOnUse">
<stop stop-color="#FE82DB"/>
<stop offset="1" stop-color="#68E4FF"/>
</linearGradient>
<linearGradient id="paint4_linear_206_748" x1="2.66667" y1="11.4286" x2="72.0977" y2="22.229" gradientUnits="userSpaceOnUse">
<stop stop-color="#FE82DB"/>
<stop offset="1" stop-color="#68E4FF"/>
</linearGradient>
<linearGradient id="paint5_linear_206_748" x1="2.66667" y1="11.4286" x2="72.0977" y2="22.229" gradientUnits="userSpaceOnUse">
<stop stop-color="#FE82DB"/>
<stop offset="1" stop-color="#68E4FF"/>
</linearGradient>
<linearGradient id="paint6_linear_206_748" x1="2" y1="2.5974" x2="64" y2="2.5974" gradientUnits="userSpaceOnUse">
<stop stop-color="#FD84DC"/>
<stop offset="1" stop-color="#7FD6FA"/>
</linearGradient>
</defs>
</svg>
